<svg width="38" height="38" viewBox="0 0 38 38" fill="none" xmlns="http://www.w3.org/2000/svg">
<path d="M37.243 34.5942H4.53803L8.66519 29.984C9.0276 30.1769 9.44048 30.2867 9.87852 30.2867C10.8869 30.2867 11.7623 29.7069 12.1933 28.8624L16.4102 29.9314C16.5218 31.268 17.6403 32.3215 19.0001 32.3215C20.4335 32.3215 21.5997 31.1508 21.5997 29.7117C21.5997 28.9181 21.2447 28.2065 20.6861 27.7275L24.125 19.4762L26.574 25.7457C25.9887 26.2247 25.6139 26.9537 25.6139 27.7691C25.6139 29.2082 26.7802 30.379 28.2137 30.379C29.6471 30.379 30.8133 29.2082 30.8133 27.7691C30.8133 27.4751 30.7639 27.1926 30.6742 26.9287L33.6781 23.9128C33.9737 23.616 33.9737 23.1348 33.6781 22.838C33.3825 22.5413 32.9032 22.5413 32.6076 22.838L29.7737 25.6829C29.3389 25.3543 28.7984 25.1592 28.2134 25.1592C28.1331 25.1592 28.0538 25.1634 27.9753 25.1706L24.9641 17.462L27.9891 10.2041C28.0631 10.2105 28.1377 10.2145 28.2134 10.2145C29.4171 10.2145 30.432 9.38883 30.7265 8.272H35.4921C35.9101 8.272 36.249 7.93172 36.249 7.51208C36.249 7.09244 35.9101 6.75215 35.4921 6.75215H30.67C30.3172 5.73047 29.3497 4.99462 28.2134 4.99462C26.78 4.99462 25.6137 6.16539 25.6137 7.60454C25.6137 8.42497 25.9931 9.1577 26.5846 9.63658L24.1702 15.4294L20.6434 6.40054C21.1733 5.92241 21.5073 5.22947 21.5073 4.45949C21.5073 3.02033 20.3411 1.84956 18.9076 1.84956C17.4741 1.84956 16.3081 3.02033 16.3081 4.45949C16.3081 5.08209 16.5267 5.65433 16.8905 6.1034L10.6502 15.5955C10.3797 15.4995 10.089 15.4468 9.78626 15.4468C9.47566 15.4468 9.17774 15.5019 8.90143 15.6026L3.5409 8.52161V0.759925C3.5409 0.340286 3.20202 0 2.78395 0C2.36587 0 2.02691 0.340286 2.02691 0.759925V8.23229H0.756957C0.338883 8.23221 0 8.57258 0 8.99222C0 9.41185 0.338883 9.75214 0.756957 9.75214H2.02699V17.3895H0.756957C0.338883 17.3895 0 17.7298 0 18.1495C0 18.5691 0.338883 18.9094 0.756957 18.9094H2.02699V26.7319H0.756957C0.338883 26.7319 0 27.0722 0 27.4918C0 27.9114 0.338883 28.2517 0.756957 28.2517H2.02699V35.3541C2.02699 35.7737 2.36587 36.114 2.78395 36.114H9.30577V37.1115C9.30577 37.5311 9.64465 37.8714 10.0627 37.8714C10.4808 37.8714 10.8197 37.5311 10.8197 37.1115V36.114H18.4273V37.1115C18.4273 37.5311 18.7661 37.8714 19.1842 37.8714C19.6023 37.8714 19.9412 37.5311 19.9412 37.1115V36.114H27.733V37.1115C27.733 37.5311 28.0718 37.8714 28.4899 37.8714C28.908 37.8714 29.2469 37.5311 29.2469 37.1115V36.114H37.2428C37.6609 36.114 37.9998 35.7737 37.9998 35.3541C37.9998 34.9344 37.6611 34.5942 37.243 34.5942ZM28.2137 26.6792C28.8123 26.6792 29.2995 27.1682 29.2995 27.7693C29.2995 28.3702 28.8124 28.8593 28.2137 28.8593C27.615 28.8593 27.1279 28.3703 27.1279 27.7693C27.1279 27.1682 27.615 26.6792 28.2137 26.6792ZM28.2137 6.51469C28.8124 6.51469 29.2994 7.0037 29.2994 7.60477C29.2994 8.20584 28.8123 8.69485 28.2137 8.69485C27.6149 8.69485 27.1278 8.20584 27.1278 7.60477C27.1278 7.0037 27.6149 6.51469 28.2137 6.51469ZM9.87852 28.7667C9.27979 28.7667 8.79277 28.2777 8.79277 27.6767C8.79277 27.0757 9.27987 26.5867 9.87852 26.5867C10.4772 26.5867 10.9643 27.0757 10.9643 27.6767C10.9642 28.2778 10.4772 28.7667 9.87852 28.7667ZM19 30.8017C18.4013 30.8017 17.9143 30.3127 17.9143 29.7117C17.9143 29.1106 18.4014 28.6216 19 28.6216C19.5986 28.6216 20.0857 29.1106 20.0857 29.7117C20.0857 30.3127 19.5987 30.8017 19 30.8017ZM18.9079 3.36978C19.5066 3.36978 19.9937 3.85879 19.9937 4.45986C19.9937 5.06093 19.5066 5.54994 18.9079 5.54994C18.3092 5.54994 17.8221 5.06093 17.8221 4.45986C17.8221 3.85879 18.3092 3.36978 18.9079 3.36978ZM9.78626 16.967C10.3851 16.967 10.8721 17.4559 10.8721 18.057C10.8721 18.6581 10.385 19.1471 9.78626 19.1471C9.18754 19.1471 8.70052 18.6581 8.70052 18.057C8.70059 17.456 9.18769 16.967 9.78626 16.967ZM3.54098 11.0338L7.69055 16.5152C7.37415 16.9475 7.18668 17.4806 7.18668 18.0569C7.18668 19.4961 8.35288 20.6669 9.78634 20.6669C11.2198 20.6669 12.3861 19.4961 12.3861 18.0569C12.3861 17.4734 12.1943 16.934 11.8706 16.4989L18.145 6.95489C18.3864 7.0294 18.6425 7.06971 18.9078 7.06971C19.0303 7.06971 19.1507 7.06055 19.2687 7.04401L23.331 17.4436L19.2983 27.1195C19.2003 27.1082 19.1009 27.1017 18.9999 27.1017C18.0243 27.1017 17.1729 27.6443 16.7283 28.4445L12.4585 27.362C12.3032 26.0709 11.2057 25.0667 9.87837 25.0667C8.44491 25.0667 7.27871 26.2375 7.27871 27.6766C7.27871 28.1233 7.39122 28.544 7.58909 28.912L3.54098 33.434V11.0338Z" fill="white"/>
<path d="M36.2579 20.1558C35.9622 19.859 35.4829 19.859 35.1873 20.1558L34.5884 20.7571C34.2928 21.0539 34.2928 21.5351 34.5884 21.8319C34.7362 21.9803 34.9299 22.0545 35.1236 22.0545C35.3174 22.0545 35.5111 21.9803 35.6589 21.8319L36.2579 21.2306C36.5534 20.9338 36.5534 20.4527 36.2579 20.1558Z" fill="white"/>
</svg>
